<svg width="459.495458984375px" height="137.6px" xmlns="http://www.w3.org/2000/svg" viewBox="20.25227050781251 6.200000000000003 459.495458984375 137.6" style="background: rgba(0, 0, 0, 0);" preserveAspectRatio="xMidYMid"><defs><filter id="editing-extrusion" x="-100%" y="-100%" width="300%" height="300%"><feFlood result="color1" flood-color="#444"></feFlood><feConvolveMatrix order="8,8" divisor="1" kernelMatrix="1 0 0 0 0 0 0 0 0 1 0 0 0 0 0 0 0 0 1 0 0 0 0 0 0 0 0 1 0 0 0 0 0 0 0 0 1 0 0 0 0 0 0 0 0 1 0 0 0 0 0 0 0 0 1 0 0 0 0 0 0 0 0 1" in="SourceAlpha" result="extrude"></feConvolveMatrix><feComposite in="color1" in2="extrude" result="comp-extrude" operator="in"></feComposite><feOffset dx="4" dy="4" in="comp-extrude" result="offset-extrude"></feOffset><feMerge><feMergeNode in="offset-extrude"></feMergeNode><feMergeNode in="SourceGraphic"></feMergeNode></feMerge></filter></defs><g filter="url(#editing-extrusion)"><g transform="translate(88.5140495300293, 103.73499870300293)"><path d="M56.58 0L42.56 0L42.56-15.87L42.56-15.87Q42.56-18.82 42.78-21.92L42.78-21.92L42.78-21.92Q43.01-25.02 43.26-27.14L43.26-27.14L43.26-27.14Q43.52-29.25 43.58-29.82L43.58-29.82L43.33-29.82L35.20 0L24.13 0L15.94-29.76L15.68-29.76L15.68-29.76Q15.74-29.18 16.03-27.10L16.03-27.10L16.03-27.10Q16.32-25.02 16.58-21.92L16.58-21.92L16.58-21.92Q16.83-18.82 16.83-15.87L16.83-15.87L16.83 0L3.84 0L3.84-44.03L23.81-44.03L30.46-18.62L30.72-18.62L37.31-44.03L56.58-44.03L56.58 0ZM81.73-34.56L81.73-34.56Q91.01-34.56 95.90-30.21L95.90-30.21L95.90-30.21Q100.80-25.86 100.80-16.90L100.80-16.90L100.80-14.72L75.46-14.72L75.46-14.72Q75.46-11.07 77.09-9.22L77.09-9.22L77.09-9.22Q78.72-7.36 82.24-7.36L82.24-7.36L82.24-7.36Q85.44-7.36 86.94-8.70L86.94-8.70L86.94-8.70Q88.45-10.05 88.45-12.29L88.45-12.29L100.80-12.29L100.80-12.29Q100.80-6.14 96.13-2.69L96.13-2.69L96.13-2.69Q91.46 0.77 82.50 0.77L82.50 0.77L82.50 0.77Q73.09 0.77 67.90-3.62L67.90-3.62L67.90-3.62Q62.72-8 62.72-16.90L62.72-16.90L62.72-16.90Q62.72-25.60 67.78-30.08L67.78-30.08L67.78-30.08Q72.83-34.56 81.73-34.56L81.73-34.56ZM82.24-26.43L82.24-26.43Q76.22-26.43 75.52-20.74L75.52-20.74L87.94-20.74L87.94-20.74Q87.94-23.36 86.43-24.90L86.43-24.90L86.43-24.90Q84.93-26.43 82.24-26.43L82.24-26.43ZM151.81-34.56L151.81-34.56Q157.57-34.56 160.45-31.26L160.45-31.26L160.45-31.26Q163.33-27.97 163.33-21.89L163.33-21.89L163.33 0L150.59 0L150.59-20.35L150.59-20.35Q150.59-22.53 149.54-23.84L149.54-23.84L149.54-23.84Q148.48-25.15 146.56-25.15L146.56-25.15L146.56-25.15Q144.32-25.15 142.91-23.62L142.91-23.62L142.91-23.62Q141.50-22.08 141.50-19.84L141.50-19.84L141.50 0L128.77 0L128.77-20.35L128.77-20.35Q128.77-22.53 127.71-23.84L127.71-23.84L127.71-23.84Q126.66-25.15 124.74-25.15L124.74-25.15L124.74-25.15Q122.50-25.15 121.09-23.62L121.09-23.62L121.09-23.62Q119.68-22.08 119.68-19.84L119.68-19.84L119.68 0L106.94 0L106.94-33.79L117.38-33.79L118.21-28.74L118.21-28.74Q120.13-31.42 123.30-32.99L123.30-32.99L123.30-32.99Q126.46-34.56 129.98-34.56L129.98-34.56L129.98-34.56Q137.60-34.56 140.22-28.74L140.22-28.74L140.22-28.74Q142.21-31.42 145.31-32.99L145.31-32.99L145.31-32.99Q148.42-34.56 151.81-34.56L151.81-34.56ZM188.42-34.56L188.42-34.56Q197.31-34.56 202.40-30.05L202.40-30.05L202.40-30.05Q207.49-25.54 207.49-16.90L207.49-16.90L207.49-16.90Q207.49-8.26 202.40-3.74L202.40-3.74L202.40-3.74Q197.31 0.77 188.42 0.77L188.42 0.77L188.42 0.77Q179.52 0.77 174.46-3.71L174.46-3.71L174.46-3.71Q169.41-8.19 169.41-16.90L169.41-16.90L169.41-16.90Q169.41-25.60 174.46-30.08L174.46-30.08L174.46-30.08Q179.52-34.56 188.42-34.56L188.42-34.56ZM188.42-25.92L188.42-25.92Q182.14-25.92 182.14-18.69L182.14-18.69L182.14-15.04L182.14-15.04Q182.14-7.87 188.42-7.87L188.42-7.87L188.42-7.87Q194.75-7.87 194.75-15.04L194.75-15.04L194.75-18.69L194.75-18.69Q194.75-25.92 188.42-25.92L188.42-25.92ZM234.18-34.62L234.18-34.62Q235.65-34.62 236.80-34.27L236.80-34.27L236.80-34.27Q237.95-33.92 237.95-33.86L237.95-33.86L237.95-23.17L233.86-23.17L233.86-23.17Q229.89-23.17 228.13-21.12L228.13-21.12L228.13-21.12Q226.37-19.07 226.37-15.04L226.37-15.04L226.37 0L213.63 0L213.63-33.79L224.06-33.79L224.90-28.67L224.90-28.67Q226.05-31.62 228.54-33.12L228.54-33.12L228.54-33.12Q231.04-34.62 234.18-34.62L234.18-34.62ZM265.28-1.02L265.28-1.02Q262.66 6.08 258.85 9.76L258.85 9.76L258.85 9.76Q255.04 13.44 248.19 13.44L248.19 13.44L248.19 13.44Q244.03 13.44 240.83 12.29L240.83 12.29L240.83 4.67L245.95 4.67L245.95 4.67Q250.75 4.67 251.65 0L251.65 0L238.21-33.79L251.90-33.79L258.37-11.33L258.82-11.33L264.77-33.79L277.31-33.79L265.28-1.02ZM297.86-34.56L297.86-34.56Q305.60-34.56 310.46-31.97L310.46-31.97L310.46-31.97Q315.33-29.38 315.33-23.55L315.33-23.55L315.33-10.37L315.33-10.37Q315.33-9.28 315.84-8.58L315.84-8.58L315.84-8.58Q316.35-7.87 317.38-7.87L317.38-7.87L319.68-7.87L319.68-0.51L319.68-0.51Q319.49-0.38 318.69-0.10L318.69-0.10L318.69-0.10Q317.89 0.19 316.42 0.48L316.42 0.48L316.42 0.48Q314.94 0.77 313.02 0.77L313.02 0.77L313.02 0.77Q309.31 0.77 306.91-0.35L306.91-0.35L306.91-0.35Q304.51-1.47 303.62-3.46L303.62-3.46L303.62-3.46Q301.18-1.54 298.18-0.38L298.18-0.38L298.18-0.38Q295.17 0.77 291.14 0.77L291.14 0.77L291.14 0.77Q279.23 0.77 279.23-8.70L279.23-8.70L279.23-8.70Q279.23-13.63 281.89-16.22L281.89-16.22L281.89-16.22Q284.54-18.82 289.54-19.78L289.54-19.78L289.54-19.78Q294.53-20.74 302.59-20.74L302.59-20.74L302.59-22.40L302.59-22.40Q302.59-24.38 301.22-25.41L301.22-25.41L301.22-25.41Q299.84-26.43 297.66-26.43L297.66-26.43L297.66-26.43Q295.68-26.43 294.24-25.73L294.24-25.73L294.24-25.73Q292.80-25.02 292.80-23.49L292.80-23.49L292.80-23.23L280.26-23.23L280.26-23.23Q280.19-23.55 280.19-24.13L280.19-24.13L280.19-24.13Q280.19-28.93 284.77-31.74L284.77-31.74L284.77-31.74Q289.34-34.56 297.86-34.56L297.86-34.56ZM302.59-14.72L302.59-14.72Q297.15-14.72 294.56-13.54L294.56-13.54L294.56-13.54Q291.97-12.35 291.97-10.37L291.97-10.37L291.97-10.37Q291.97-7.17 296.32-7.17L296.32-7.17L296.32-7.17Q298.82-7.17 300.70-8.51L300.70-8.51L300.70-8.51Q302.59-9.86 302.59-11.84L302.59-11.84L302.59-14.72Z" fill="#ccc"></path></g></g><style>text {
  font-size: 64px;
  font-family: Arial Black;
  dominant-baseline: central;
  text-anchor: middle;
}</style></svg>